<svg xmlns="http://www.w3.org/2000/svg" version="1.1" xmlns:xlink="http://www.w3.org/1999/xlink" xmlns:svgjs="http://svgjs.com/svgjs" width="1440" height="560" preserveAspectRatio="none" viewBox="0 0 1440 560"><g mask="url(&quot;#SvgjsMask1738&quot;)" fill="none"><g mask="url(&quot;#SvgjsMask1739&quot;)"><path d="M712.5 462.5L712.5 437.5L712.5 412.5M712.5 387.5L737.5 362.5L737.5 337.5M712.5 337.5L712.5 312.5M712.5 587.5L712.5 562.5L712.5 537.5L712.5 512.5L712.5 487.5L712.5 462.5L737.5 437.5L737.5 412.5L712.5 387.5L712.5 362.5L712.5 337.5L737.5 312.5L737.5 287.5L737.5 262.5" stroke="rgba(119, 119, 119, 1)" stroke-width="4.17"></path><path d="M731.25 262.5 a6.25 6.25 0 1 0 12.5 0 a6.25 6.25 0 1 0 -12.5 0zM706.25 412.5 a6.25 6.25 0 1 0 12.5 0 a6.25 6.25 0 1 0 -12.5 0zM731.25 337.5 a6.25 6.25 0 1 0 12.5 0 a6.25 6.25 0 1 0 -12.5 0zM706.25 312.5 a6.25 6.25 0 1 0 12.5 0 a6.25 6.25 0 1 0 -12.5 0z" fill="rgba(119, 119, 119, 1)"></path><path d="M762.5 362.5L787.5 337.5L787.5 312.5L787.5 287.5M762.5 387.5L787.5 362.5L812.5 337.5L812.5 312.5L812.5 287.5M762.5 412.5L787.5 387.5M737.5 587.5L737.5 562.5L737.5 537.5L737.5 512.5L737.5 487.5L737.5 462.5L762.5 437.5L762.5 412.5L762.5 387.5L762.5 362.5L762.5 337.5" stroke="rgba(119, 119, 119, 1)" stroke-width="4.17"></path><path d="M756.25 337.5 a6.25 6.25 0 1 0 12.5 0 a6.25 6.25 0 1 0 -12.5 0zM781.25 287.5 a6.25 6.25 0 1 0 12.5 0 a6.25 6.25 0 1 0 -12.5 0zM806.25 287.5 a6.25 6.25 0 1 0 12.5 0 a6.25 6.25 0 1 0 -12.5 0zM781.25 387.5 a6.25 6.25 0 1 0 12.5 0 a6.25 6.25 0 1 0 -12.5 0z" fill="rgba(119, 119, 119, 1)"></path><path d="M687.5 587.5L687.5 562.5L687.5 537.5L687.5 512.5L687.5 487.5L687.5 462.5L687.5 437.5L687.5 412.5L687.5 387.5L687.5 362.5" stroke="rgba(0, 0, 0, 1)" stroke-width="4.17"></path><path d="M681.25 362.5 a6.25 6.25 0 1 0 12.5 0 a6.25 6.25 0 1 0 -12.5 0z" fill="rgba(0, 0, 0, 1)"></path><path d="M787.5 487.5L787.5 462.5L787.5 437.5L787.5 412.5L812.5 387.5M787.5 537.5L762.5 512.5L762.5 487.5M787.5 512.5L812.5 487.5L812.5 462.5L837.5 437.5L837.5 412.5M762.5 587.5L787.5 562.5L787.5 537.5L787.5 512.5L787.5 487.5L762.5 462.5" stroke="rgba(119, 119, 119, 1)" stroke-width="4.17"></path><path d="M756.25 462.5 a6.25 6.25 0 1 0 12.5 0 a6.25 6.25 0 1 0 -12.5 0zM806.25 387.5 a6.25 6.25 0 1 0 12.5 0 a6.25 6.25 0 1 0 -12.5 0zM756.25 487.5 a6.25 6.25 0 1 0 12.5 0 a6.25 6.25 0 1 0 -12.5 0zM831.25 412.5 a6.25 6.25 0 1 0 12.5 0 a6.25 6.25 0 1 0 -12.5 0z" fill="rgba(119, 119, 119, 1)"></path><path d="M662.5 412.5L637.5 387.5M662.5 387.5L662.5 362.5L662.5 337.5L662.5 312.5M662.5 437.5L637.5 412.5M662.5 587.5L662.5 562.5L662.5 537.5L662.5 512.5L662.5 487.5L662.5 462.5L662.5 437.5L662.5 412.5L662.5 387.5L637.5 362.5" stroke="rgba(119, 119, 119, 1)" stroke-width="4.17"></path><path d="M631.25 362.5 a6.25 6.25 0 1 0 12.5 0 a6.25 6.25 0 1 0 -12.5 0zM631.25 387.5 a6.25 6.25 0 1 0 12.5 0 a6.25 6.25 0 1 0 -12.5 0zM656.25 312.5 a6.25 6.25 0 1 0 12.5 0 a6.25 6.25 0 1 0 -12.5 0zM631.25 412.5 a6.25 6.25 0 1 0 12.5 0 a6.25 6.25 0 1 0 -12.5 0z" fill="rgba(119, 119, 119, 1)"></path><path d="M637.5 587.5L637.5 562.5L637.5 537.5" stroke="rgba(0, 0, 0, 1)" stroke-width="4.17"></path><path d="M631.25 537.5 a6.25 6.25 0 1 0 12.5 0 a6.25 6.25 0 1 0 -12.5 0z" fill="rgba(0, 0, 0, 1)"></path><path d="M612.5 387.5L587.5 362.5L587.5 337.5L587.5 312.5L587.5 287.5M612.5 412.5L587.5 387.5M612.5 237.5L637.5 212.5L637.5 187.5M612.5 312.5L637.5 287.5L637.5 262.5M612.5 587.5L612.5 562.5L612.5 537.5L637.5 512.5L637.5 487.5L612.5 462.5L612.5 437.5L612.5 412.5L612.5 387.5L612.5 362.5L612.5 337.5L612.5 312.5L612.5 287.5L612.5 262.5L612.5 237.5L612.5 212.5" stroke="rgba(119, 119, 119, 1)" stroke-width="4.17"></path><path d="M606.25 212.5 a6.25 6.25 0 1 0 12.5 0 a6.25 6.25 0 1 0 -12.5 0zM581.25 287.5 a6.25 6.25 0 1 0 12.5 0 a6.25 6.25 0 1 0 -12.5 0zM581.25 387.5 a6.25 6.25 0 1 0 12.5 0 a6.25 6.25 0 1 0 -12.5 0zM631.25 187.5 a6.25 6.25 0 1 0 12.5 0 a6.25 6.25 0 1 0 -12.5 0zM631.25 262.5 a6.25 6.25 0 1 0 12.5 0 a6.25 6.25 0 1 0 -12.5 0z" fill="rgba(119, 119, 119, 1)"></path><path d="M837.5 562.5L862.5 537.5L862.5 512.5L862.5 487.5M837.5 587.5L837.5 562.5L837.5 537.5" stroke="rgba(119, 119, 119, 1)" stroke-width="4.17"></path><path d="M831.25 537.5 a6.25 6.25 0 1 0 12.5 0 a6.25 6.25 0 1 0 -12.5 0zM856.25 487.5 a6.25 6.25 0 1 0 12.5 0 a6.25 6.25 0 1 0 -12.5 0z" fill="rgba(119, 119, 119, 1)"></path><path d="M587.5 512.5L587.5 487.5L587.5 462.5L587.5 437.5L587.5 412.5M587.5 587.5L587.5 562.5L587.5 537.5L587.5 512.5L612.5 487.5" stroke="rgba(119, 119, 119, 1)" stroke-width="4.17"></path><path d="M606.25 487.5 a6.25 6.25 0 1 0 12.5 0 a6.25 6.25 0 1 0 -12.5 0zM581.25 412.5 a6.25 6.25 0 1 0 12.5 0 a6.25 6.25 0 1 0 -12.5 0z" fill="rgba(119, 119, 119, 1)"></path><path d="M912.5 312.5L937.5 287.5L937.5 262.5L937.5 237.5M912.5 337.5L887.5 312.5L887.5 287.5M937.5 137.5L912.5 112.5M887.5 512.5L912.5 487.5L912.5 462.5L912.5 437.5L912.5 412.5M887.5 412.5L862.5 387.5M862.5 587.5L887.5 562.5L887.5 537.5L887.5 512.5L887.5 487.5L887.5 462.5L887.5 437.5L887.5 412.5L887.5 387.5L912.5 362.5L912.5 337.5L912.5 312.5L912.5 287.5L912.5 262.5L912.5 237.5L912.5 212.5L912.5 187.5L937.5 162.5L937.5 137.5L937.5 112.5" stroke="rgba(0, 0, 0, 1)" stroke-width="4.17"></path><path d="M931.25 112.5 a6.25 6.25 0 1 0 12.5 0 a6.25 6.25 0 1 0 -12.5 0zM931.25 237.5 a6.25 6.25 0 1 0 12.5 0 a6.25 6.25 0 1 0 -12.5 0zM881.25 287.5 a6.25 6.25 0 1 0 12.5 0 a6.25 6.25 0 1 0 -12.5 0zM906.25 112.5 a6.25 6.25 0 1 0 12.5 0 a6.25 6.25 0 1 0 -12.5 0zM906.25 412.5 a6.25 6.25 0 1 0 12.5 0 a6.25 6.25 0 1 0 -12.5 0zM856.25 387.5 a6.25 6.25 0 1 0 12.5 0 a6.25 6.25 0 1 0 -12.5 0z" fill="rgba(0, 0, 0, 1)"></path><path d="M562.5 212.5L537.5 187.5L537.5 162.5M562.5 362.5L537.5 337.5M562.5 262.5L537.5 237.5L537.5 212.5L512.5 187.5M562.5 437.5L537.5 412.5M562.5 587.5L562.5 562.5L562.5 537.5L562.5 512.5L562.5 487.5L562.5 462.5L562.5 437.5L562.5 412.5L562.5 387.5L562.5 362.5L562.5 337.5L562.5 312.5L562.5 287.5L562.5 262.5L562.5 237.5L562.5 212.5L562.5 187.5" stroke="rgba(119, 119, 119, 1)" stroke-width="4.17"></path><path d="M556.25 187.5 a6.25 6.25 0 1 0 12.5 0 a6.25 6.25 0 1 0 -12.5 0zM531.25 162.5 a6.25 6.25 0 1 0 12.5 0 a6.25 6.25 0 1 0 -12.5 0zM531.25 337.5 a6.25 6.25 0 1 0 12.5 0 a6.25 6.25 0 1 0 -12.5 0zM506.25 187.5 a6.25 6.25 0 1 0 12.5 0 a6.25 6.25 0 1 0 -12.5 0zM531.25 412.5 a6.25 6.25 0 1 0 12.5 0 a6.25 6.25 0 1 0 -12.5 0z" fill="rgba(119, 119, 119, 1)"></path><path d="M537.5 587.5L537.5 562.5L537.5 537.5L537.5 512.5L537.5 487.5L537.5 462.5" stroke="rgba(119, 119, 119, 1)" stroke-width="4.17"></path><path d="M531.25 462.5 a6.25 6.25 0 1 0 12.5 0 a6.25 6.25 0 1 0 -12.5 0z" fill="rgba(119, 119, 119, 1)"></path><path d="M912.5 587.5L912.5 562.5L912.5 537.5" stroke="rgba(0, 0, 0, 1)" stroke-width="4.17"></path><path d="M906.25 537.5 a6.25 6.25 0 1 0 12.5 0 a6.25 6.25 0 1 0 -12.5 0z" fill="rgba(0, 0, 0, 1)"></path><path d="M512.5 537.5L487.5 512.5L487.5 487.5L487.5 462.5L487.5 437.5M512.5 587.5L512.5 562.5L512.5 537.5L512.5 512.5L512.5 487.5" stroke="rgba(119, 119, 119, 1)" stroke-width="4.17"></path><path d="M506.25 487.5 a6.25 6.25 0 1 0 12.5 0 a6.25 6.25 0 1 0 -12.5 0zM481.25 437.5 a6.25 6.25 0 1 0 12.5 0 a6.25 6.25 0 1 0 -12.5 0z" fill="rgba(119, 119, 119, 1)"></path><path d="M937.5 362.5L962.5 337.5M962.5 562.5L937.5 537.5L937.5 512.5L937.5 487.5M937.5 587.5L962.5 562.5L962.5 537.5L962.5 512.5L962.5 487.5L962.5 462.5L962.5 437.5L937.5 412.5L937.5 387.5L937.5 362.5L937.5 337.5" stroke="rgba(119, 119, 119, 1)" stroke-width="4.17"></path><path d="M931.25 337.5 a6.25 6.25 0 1 0 12.5 0 a6.25 6.25 0 1 0 -12.5 0zM956.25 337.5 a6.25 6.25 0 1 0 12.5 0 a6.25 6.25 0 1 0 -12.5 0zM931.25 487.5 a6.25 6.25 0 1 0 12.5 0 a6.25 6.25 0 1 0 -12.5 0z" fill="rgba(119, 119, 119, 1)"></path><path d="M462.5 587.5L437.5 562.5" stroke="rgba(0, 0, 0, 1)" stroke-width="4.17"></path><path d="M431.25 562.5 a6.25 6.25 0 1 0 12.5 0 a6.25 6.25 0 1 0 -12.5 0z" fill="rgba(0, 0, 0, 1)"></path><path d="M987.5 587.5L987.5 562.5L987.5 537.5L987.5 512.5L987.5 487.5" stroke="rgba(0, 0, 0, 1)" stroke-width="4.17"></path><path d="M981.25 487.5 a6.25 6.25 0 1 0 12.5 0 a6.25 6.25 0 1 0 -12.5 0z" fill="rgba(0, 0, 0, 1)"></path><path d="M987.5 387.5L962.5 362.5M1012.5 412.5L1012.5 387.5M1012.5 462.5L987.5 437.5M1012.5 587.5L1012.5 562.5L1012.5 537.5L1012.5 512.5L1012.5 487.5L1012.5 462.5L1012.5 437.5L1012.5 412.5L987.5 387.5L987.5 362.5L987.5 337.5L987.5 312.5" stroke="rgba(119, 119, 119, 1)" stroke-width="4.17"></path><path d="M981.25 312.5 a6.25 6.25 0 1 0 12.5 0 a6.25 6.25 0 1 0 -12.5 0zM956.25 362.5 a6.25 6.25 0 1 0 12.5 0 a6.25 6.25 0 1 0 -12.5 0zM1006.25 387.5 a6.25 6.25 0 1 0 12.5 0 a6.25 6.25 0 1 0 -12.5 0zM981.25 437.5 a6.25 6.25 0 1 0 12.5 0 a6.25 6.25 0 1 0 -12.5 0z" fill="rgba(119, 119, 119, 1)"></path><path d="M462.5 337.5L487.5 312.5L487.5 287.5L487.5 262.5L487.5 237.5M437.5 387.5L437.5 362.5L437.5 337.5L437.5 312.5L437.5 287.5M462.5 187.5L487.5 162.5L487.5 137.5L487.5 112.5M412.5 487.5L437.5 462.5L437.5 437.5L437.5 412.5M462.5 137.5L437.5 112.5M412.5 587.5L412.5 562.5L412.5 537.5L412.5 512.5L412.5 487.5L412.5 462.5L412.5 437.5L412.5 412.5L437.5 387.5L462.5 362.5L462.5 337.5L462.5 312.5L462.5 287.5L462.5 262.5L462.5 237.5L462.5 212.5L462.5 187.5L462.5 162.5L462.5 137.5L462.5 112.5" stroke="rgba(0, 0, 0, 1)" stroke-width="4.17"></path><path d="M456.25 112.5 a6.25 6.25 0 1 0 12.5 0 a6.25 6.25 0 1 0 -12.5 0zM481.25 237.5 a6.25 6.25 0 1 0 12.5 0 a6.25 6.25 0 1 0 -12.5 0zM431.25 287.5 a6.25 6.25 0 1 0 12.5 0 a6.25 6.25 0 1 0 -12.5 0zM481.25 112.5 a6.25 6.25 0 1 0 12.5 0 a6.25 6.25 0 1 0 -12.5 0zM431.25 412.5 a6.25 6.25 0 1 0 12.5 0 a6.25 6.25 0 1 0 -12.5 0zM431.25 112.5 a6.25 6.25 0 1 0 12.5 0 a6.25 6.25 0 1 0 -12.5 0z" fill="rgba(0, 0, 0, 1)"></path><path d="M1037.5 262.5L1012.5 237.5L1012.5 212.5L1012.5 187.5L1012.5 162.5L1012.5 137.5L987.5 112.5M1037.5 387.5L1037.5 362.5L1037.5 337.5M1037.5 287.5L1012.5 262.5L987.5 237.5L987.5 212.5L987.5 187.5M1012.5 312.5L1012.5 287.5L987.5 262.5M1037.5 587.5L1037.5 562.5L1037.5 537.5L1037.5 512.5L1037.5 487.5L1037.5 462.5L1037.5 437.5L1037.5 412.5L1037.5 387.5L1012.5 362.5L1012.5 337.5L1012.5 312.5L1037.5 287.5L1037.5 262.5L1037.5 237.5L1037.5 212.5L1037.5 187.5L1037.5 162.5" stroke="rgba(119, 119, 119, 1)" stroke-width="4.17"></path><path d="M1031.25 162.5 a6.25 6.25 0 1 0 12.5 0 a6.25 6.25 0 1 0 -12.5 0zM981.25 112.5 a6.25 6.25 0 1 0 12.5 0 a6.25 6.25 0 1 0 -12.5 0zM1031.25 337.5 a6.25 6.25 0 1 0 12.5 0 a6.25 6.25 0 1 0 -12.5 0zM981.25 187.5 a6.25 6.25 0 1 0 12.5 0 a6.25 6.25 0 1 0 -12.5 0zM981.25 262.5 a6.25 6.25 0 1 0 12.5 0 a6.25 6.25 0 1 0 -12.5 0z" fill="rgba(119, 119, 119, 1)"></path><path d="M387.5 237.5L362.5 212.5L362.5 187.5L362.5 162.5M387.5 462.5L362.5 437.5L362.5 412.5L362.5 387.5L362.5 362.5L362.5 337.5M387.5 187.5L412.5 162.5M387.5 262.5L362.5 237.5L337.5 212.5M387.5 587.5L387.5 562.5L387.5 537.5L387.5 512.5L387.5 487.5L387.5 462.5L387.5 437.5L387.5 412.5L387.5 387.5L387.5 362.5L387.5 337.5L387.5 312.5L387.5 287.5L387.5 262.5L387.5 237.5L387.5 212.5L387.5 187.5L387.5 162.5" stroke="rgba(0, 0, 0, 1)" stroke-width="4.17"></path><path d="M381.25 162.5 a6.25 6.25 0 1 0 12.5 0 a6.25 6.25 0 1 0 -12.5 0zM356.25 162.5 a6.25 6.25 0 1 0 12.5 0 a6.25 6.25 0 1 0 -12.5 0zM356.25 337.5 a6.25 6.25 0 1 0 12.5 0 a6.25 6.25 0 1 0 -12.5 0zM406.25 162.5 a6.25 6.25 0 1 0 12.5 0 a6.25 6.25 0 1 0 -12.5 0zM331.25 212.5 a6.25 6.25 0 1 0 12.5 0 a6.25 6.25 0 1 0 -12.5 0z" fill="rgba(0, 0, 0, 1)"></path><path d="M1062.5 312.5L1087.5 287.5L1087.5 262.5L1087.5 237.5M1062.5 462.5L1087.5 437.5M1062.5 187.5L1087.5 162.5L1087.5 137.5M1087.5 362.5L1112.5 337.5L1112.5 312.5L1112.5 287.5L1112.5 262.5L1112.5 237.5M1062.5 587.5L1062.5 562.5L1062.5 537.5L1062.5 512.5L1062.5 487.5L1062.5 462.5L1062.5 437.5L1062.5 412.5L1087.5 387.5L1087.5 362.5L1087.5 337.5L1062.5 312.5L1062.5 287.5L1062.5 262.5L1062.5 237.5L1062.5 212.5L1062.5 187.5L1062.5 162.5" stroke="rgba(0, 0, 0, 1)" stroke-width="4.17"></path><path d="M1056.25 162.5 a6.25 6.25 0 1 0 12.5 0 a6.25 6.25 0 1 0 -12.5 0zM1081.25 237.5 a6.25 6.25 0 1 0 12.5 0 a6.25 6.25 0 1 0 -12.5 0zM1081.25 437.5 a6.25 6.25 0 1 0 12.5 0 a6.25 6.25 0 1 0 -12.5 0zM1081.25 137.5 a6.25 6.25 0 1 0 12.5 0 a6.25 6.25 0 1 0 -12.5 0zM1106.25 237.5 a6.25 6.25 0 1 0 12.5 0 a6.25 6.25 0 1 0 -12.5 0z" fill="rgba(0, 0, 0, 1)"></path><path d="M337.5 412.5L312.5 387.5M312.5 287.5L287.5 262.5M312.5 312.5L337.5 287.5L337.5 262.5L337.5 237.5M362.5 587.5L362.5 562.5L362.5 537.5L362.5 512.5L337.5 487.5L337.5 462.5L337.5 437.5L337.5 412.5L337.5 387.5L337.5 362.5L337.5 337.5L312.5 312.5L312.5 287.5L312.5 262.5L312.5 237.5" stroke="rgba(119, 119, 119, 1)" stroke-width="4.17"></path><path d="M306.25 237.5 a6.25 6.25 0 1 0 12.5 0 a6.25 6.25 0 1 0 -12.5 0zM306.25 387.5 a6.25 6.25 0 1 0 12.5 0 a6.25 6.25 0 1 0 -12.5 0zM281.25 262.5 a6.25 6.25 0 1 0 12.5 0 a6.25 6.25 0 1 0 -12.5 0zM331.25 237.5 a6.25 6.25 0 1 0 12.5 0 a6.25 6.25 0 1 0 -12.5 0z" fill="rgba(119, 119, 119, 1)"></path></g></g><defs><mask id="SvgjsMask1738"><rect width="1440" height="560" fill="#ffffff"></rect></mask><mask id="SvgjsMask1739"><rect width="1440" height="560" fill="white"></rect><path d="M734.37 262.5 a3.13 3.13 0 1 0 6.26 0 a3.13 3.13 0 1 0 -6.26 0zM709.37 412.5 a3.13 3.13 0 1 0 6.26 0 a3.13 3.13 0 1 0 -6.26 0zM734.37 337.5 a3.13 3.13 0 1 0 6.26 0 a3.13 3.13 0 1 0 -6.26 0zM709.37 312.5 a3.13 3.13 0 1 0 6.26 0 a3.13 3.13 0 1 0 -6.26 0z" fill="black"></path><path d="M759.37 337.5 a3.13 3.13 0 1 0 6.26 0 a3.13 3.13 0 1 0 -6.26 0zM784.37 287.5 a3.13 3.13 0 1 0 6.26 0 a3.13 3.13 0 1 0 -6.26 0zM809.37 287.5 a3.13 3.13 0 1 0 6.26 0 a3.13 3.13 0 1 0 -6.26 0zM784.37 387.5 a3.13 3.13 0 1 0 6.26 0 a3.13 3.13 0 1 0 -6.26 0z" fill="black"></path><path d="M684.37 362.5 a3.13 3.13 0 1 0 6.26 0 a3.13 3.13 0 1 0 -6.26 0z" fill="black"></path><path d="M759.37 462.5 a3.13 3.13 0 1 0 6.26 0 a3.13 3.13 0 1 0 -6.26 0zM809.37 387.5 a3.13 3.13 0 1 0 6.26 0 a3.13 3.13 0 1 0 -6.26 0zM759.37 487.5 a3.13 3.13 0 1 0 6.26 0 a3.13 3.13 0 1 0 -6.26 0zM834.37 412.5 a3.13 3.13 0 1 0 6.26 0 a3.13 3.13 0 1 0 -6.26 0z" fill="black"></path><path d="M634.37 362.5 a3.13 3.13 0 1 0 6.26 0 a3.13 3.13 0 1 0 -6.26 0zM634.37 387.5 a3.13 3.13 0 1 0 6.26 0 a3.13 3.13 0 1 0 -6.26 0zM659.37 312.5 a3.13 3.13 0 1 0 6.26 0 a3.13 3.13 0 1 0 -6.26 0zM634.37 412.5 a3.13 3.13 0 1 0 6.26 0 a3.13 3.13 0 1 0 -6.26 0z" fill="black"></path><path d="M634.37 537.5 a3.13 3.13 0 1 0 6.26 0 a3.13 3.13 0 1 0 -6.26 0z" fill="black"></path><path d="M609.37 212.5 a3.13 3.13 0 1 0 6.26 0 a3.13 3.13 0 1 0 -6.26 0zM584.37 287.5 a3.13 3.13 0 1 0 6.26 0 a3.13 3.13 0 1 0 -6.26 0zM584.37 387.5 a3.13 3.13 0 1 0 6.26 0 a3.13 3.13 0 1 0 -6.26 0zM634.37 187.5 a3.13 3.13 0 1 0 6.26 0 a3.13 3.13 0 1 0 -6.26 0zM634.37 262.5 a3.13 3.13 0 1 0 6.26 0 a3.13 3.13 0 1 0 -6.26 0z" fill="black"></path><path d="M834.37 537.5 a3.13 3.13 0 1 0 6.26 0 a3.13 3.13 0 1 0 -6.26 0zM859.37 487.5 a3.13 3.13 0 1 0 6.26 0 a3.13 3.13 0 1 0 -6.26 0z" fill="black"></path><path d="M609.37 487.5 a3.13 3.13 0 1 0 6.26 0 a3.13 3.13 0 1 0 -6.26 0zM584.37 412.5 a3.13 3.13 0 1 0 6.26 0 a3.13 3.13 0 1 0 -6.26 0z" fill="black"></path><path d="M934.37 112.5 a3.13 3.13 0 1 0 6.26 0 a3.13 3.13 0 1 0 -6.26 0zM934.37 237.5 a3.13 3.13 0 1 0 6.26 0 a3.13 3.13 0 1 0 -6.26 0zM884.37 287.5 a3.13 3.13 0 1 0 6.26 0 a3.13 3.13 0 1 0 -6.26 0zM909.37 112.5 a3.13 3.13 0 1 0 6.26 0 a3.13 3.13 0 1 0 -6.26 0zM909.37 412.5 a3.13 3.13 0 1 0 6.26 0 a3.13 3.13 0 1 0 -6.26 0zM859.37 387.5 a3.13 3.13 0 1 0 6.26 0 a3.13 3.13 0 1 0 -6.26 0z" fill="black"></path><path d="M559.37 187.5 a3.13 3.13 0 1 0 6.26 0 a3.13 3.13 0 1 0 -6.26 0zM534.37 162.5 a3.13 3.13 0 1 0 6.26 0 a3.13 3.13 0 1 0 -6.26 0zM534.37 337.5 a3.13 3.13 0 1 0 6.26 0 a3.13 3.13 0 1 0 -6.26 0zM509.37 187.5 a3.13 3.13 0 1 0 6.26 0 a3.13 3.13 0 1 0 -6.26 0zM534.37 412.5 a3.13 3.13 0 1 0 6.26 0 a3.13 3.13 0 1 0 -6.26 0z" fill="black"></path><path d="M534.37 462.5 a3.13 3.13 0 1 0 6.26 0 a3.13 3.13 0 1 0 -6.26 0z" fill="black"></path><path d="M909.37 537.5 a3.13 3.13 0 1 0 6.26 0 a3.13 3.13 0 1 0 -6.26 0z" fill="black"></path><path d="M509.37 487.5 a3.13 3.13 0 1 0 6.26 0 a3.13 3.13 0 1 0 -6.26 0zM484.37 437.5 a3.13 3.13 0 1 0 6.26 0 a3.13 3.13 0 1 0 -6.26 0z" fill="black"></path><path d="M934.37 337.5 a3.13 3.13 0 1 0 6.26 0 a3.13 3.13 0 1 0 -6.26 0zM959.37 337.5 a3.13 3.13 0 1 0 6.26 0 a3.13 3.13 0 1 0 -6.26 0zM934.37 487.5 a3.13 3.13 0 1 0 6.26 0 a3.13 3.13 0 1 0 -6.26 0z" fill="black"></path><path d="M434.37 562.5 a3.13 3.13 0 1 0 6.26 0 a3.13 3.13 0 1 0 -6.26 0z" fill="black"></path><path d="M984.37 487.5 a3.13 3.13 0 1 0 6.26 0 a3.13 3.13 0 1 0 -6.26 0z" fill="black"></path><path d="M984.37 312.5 a3.13 3.13 0 1 0 6.26 0 a3.13 3.13 0 1 0 -6.26 0zM959.37 362.5 a3.13 3.13 0 1 0 6.26 0 a3.13 3.13 0 1 0 -6.26 0zM1009.37 387.5 a3.13 3.13 0 1 0 6.26 0 a3.13 3.13 0 1 0 -6.26 0zM984.37 437.5 a3.13 3.13 0 1 0 6.26 0 a3.13 3.13 0 1 0 -6.26 0z" fill="black"></path><path d="M459.37 112.5 a3.13 3.13 0 1 0 6.26 0 a3.13 3.13 0 1 0 -6.26 0zM484.37 237.5 a3.13 3.13 0 1 0 6.26 0 a3.13 3.13 0 1 0 -6.26 0zM434.37 287.5 a3.13 3.13 0 1 0 6.26 0 a3.13 3.13 0 1 0 -6.26 0zM484.37 112.5 a3.13 3.13 0 1 0 6.26 0 a3.13 3.13 0 1 0 -6.26 0zM434.37 412.5 a3.13 3.13 0 1 0 6.26 0 a3.13 3.13 0 1 0 -6.26 0zM434.37 112.5 a3.13 3.13 0 1 0 6.26 0 a3.13 3.13 0 1 0 -6.26 0z" fill="black"></path><path d="M1034.37 162.5 a3.13 3.13 0 1 0 6.26 0 a3.13 3.13 0 1 0 -6.26 0zM984.37 112.5 a3.13 3.13 0 1 0 6.26 0 a3.13 3.13 0 1 0 -6.26 0zM1034.37 337.5 a3.13 3.13 0 1 0 6.26 0 a3.13 3.13 0 1 0 -6.26 0zM984.37 187.5 a3.13 3.13 0 1 0 6.26 0 a3.13 3.13 0 1 0 -6.26 0zM984.37 262.5 a3.13 3.13 0 1 0 6.26 0 a3.13 3.13 0 1 0 -6.26 0z" fill="black"></path><path d="M384.37 162.5 a3.13 3.13 0 1 0 6.26 0 a3.13 3.13 0 1 0 -6.26 0zM359.37 162.5 a3.13 3.13 0 1 0 6.26 0 a3.13 3.13 0 1 0 -6.26 0zM359.37 337.5 a3.13 3.13 0 1 0 6.26 0 a3.13 3.13 0 1 0 -6.26 0zM409.37 162.5 a3.13 3.13 0 1 0 6.26 0 a3.13 3.13 0 1 0 -6.26 0zM334.37 212.5 a3.13 3.13 0 1 0 6.26 0 a3.13 3.13 0 1 0 -6.26 0z" fill="black"></path><path d="M1059.37 162.5 a3.13 3.13 0 1 0 6.26 0 a3.13 3.13 0 1 0 -6.26 0zM1084.37 237.5 a3.13 3.13 0 1 0 6.26 0 a3.13 3.13 0 1 0 -6.26 0zM1084.37 437.5 a3.13 3.13 0 1 0 6.26 0 a3.13 3.13 0 1 0 -6.26 0zM1084.37 137.5 a3.13 3.13 0 1 0 6.26 0 a3.13 3.13 0 1 0 -6.26 0zM1109.37 237.5 a3.13 3.13 0 1 0 6.26 0 a3.13 3.13 0 1 0 -6.26 0z" fill="black"></path><path d="M309.37 237.5 a3.13 3.13 0 1 0 6.26 0 a3.13 3.13 0 1 0 -6.26 0zM309.37 387.5 a3.13 3.13 0 1 0 6.26 0 a3.13 3.13 0 1 0 -6.26 0zM284.37 262.5 a3.13 3.13 0 1 0 6.26 0 a3.13 3.13 0 1 0 -6.26 0zM334.37 237.5 a3.13 3.13 0 1 0 6.26 0 a3.13 3.13 0 1 0 -6.26 0z" fill="black"></path></mask></defs></svg>